<svg width="1314" height="786" viewBox="0 0 1314 786" fill="none" xmlns="http://www.w3.org/2000/svg">
<g clip-path="url(#clip0_57_23)">
<path d="M0 747C0 742.582 3.58172 739 8 739H39C43.4183 739 47 742.582 47 747V778C47 782.418 43.4183 786 39 786H8C3.58172 786 0 782.418 0 778V747Z" fill="white"/>
<path d="M23.5149 751.5L23.5 773.242M31.5 764.96L23.5 773.5L15.5 764.959" stroke="#171717" stroke-width="1.5" stroke-linecap="round" stroke-linejoin="round"/>
<path d="M59.36 770V755.6H63.98C68.76 755.6 71.06 758.82 71.06 762.8C71.06 766.78 68.76 770 63.98 770H59.36ZM60.94 768.56H63.98C67.76 768.56 69.42 766.04 69.42 762.8C69.42 759.56 67.76 757.04 63.98 757.04H60.94V768.56ZM73.0281 770V759.6H74.5481V770H73.0281ZM73.0281 757.62V755.6H74.5281V757.62H73.0281ZM80.6739 770.24C78.1539 770.24 76.3939 769.06 76.2739 766.6H77.7939C77.9339 768.26 78.9139 768.92 80.6739 768.92C82.2539 768.92 83.2739 768.34 83.2739 767.24C83.2739 766.26 82.9139 765.82 80.5339 765.44C77.3939 764.92 76.5939 763.92 76.5939 762.28C76.5939 760.5 78.1739 759.36 80.3939 759.36C83.0139 759.36 84.5539 760.62 84.5939 762.8H83.0939C83.0139 761.2 81.9339 760.66 80.3939 760.66C79.1139 760.66 78.0939 761.22 78.0939 762.26C78.0939 763.3 78.6539 763.66 80.9339 764.06C83.9739 764.58 84.7939 765.46 84.7939 767.14C84.7939 769.16 82.9939 770.24 80.6739 770.24ZM90.9447 770.24C88.0047 770.24 86.1447 767.9 86.1447 764.8C86.1447 761.7 88.0047 759.36 90.9447 759.36C93.4447 759.36 95.0247 760.88 95.3447 763.08H93.8047C93.5047 761.66 92.4647 760.72 90.9447 760.72C88.8447 760.72 87.7247 762.46 87.7247 764.8C87.7247 767.14 88.8447 768.88 90.9447 768.88C92.4847 768.88 93.5247 767.92 93.8047 766.44H95.3647C95.0447 768.68 93.3047 770.24 90.9447 770.24ZM101.748 770.24C98.6478 770.24 96.7878 767.9 96.7878 764.8C96.7878 761.7 98.6478 759.36 101.748 759.36C104.868 759.36 106.728 761.7 106.728 764.8C106.728 767.9 104.868 770.24 101.748 770.24ZM101.748 768.88C104.028 768.88 105.148 767.14 105.148 764.8C105.148 762.46 104.028 760.72 101.748 760.72C99.4878 760.72 98.3478 762.46 98.3478 764.8C98.3478 767.14 99.4878 768.88 101.748 768.88ZM111.892 770L107.692 759.6H109.332L112.672 768.28L115.992 759.6H117.632L113.432 770H111.892ZM123.404 770.24C120.464 770.24 118.604 767.9 118.604 764.8C118.604 761.7 120.464 759.36 123.404 759.36C126.364 759.36 128.224 761.7 128.224 764.8V765.32H120.184C120.344 767.4 121.464 768.88 123.404 768.88C124.864 768.88 125.984 768.08 126.464 766.78H128.004C127.364 768.86 125.684 770.24 123.404 770.24ZM120.224 763.96H126.584C126.344 762.06 125.264 760.72 123.404 760.72C121.564 760.72 120.464 762.06 120.224 763.96ZM130.217 770V759.6H131.657V761.44C132.497 759.88 133.777 759.48 135.057 759.48H135.837V760.94H134.997C133.237 760.94 131.737 761.78 131.717 764.42V770H130.217ZM148.222 770L143.322 758.32V770H141.782V755.6H143.822L148.962 768.22L154.082 755.6H156.122V770H154.582V758.36L149.702 770H148.222ZM163.213 770.24C160.113 770.24 158.253 767.9 158.253 764.8C158.253 761.7 160.113 759.36 163.213 759.36C166.333 759.36 168.193 761.7 168.193 764.8C168.193 767.9 166.333 770.24 163.213 770.24ZM163.213 768.88C165.493 768.88 166.613 767.14 166.613 764.8C166.613 762.46 165.493 760.72 163.213 760.72C160.953 760.72 159.813 762.46 159.813 764.8C159.813 767.14 160.953 768.88 163.213 768.88ZM170.197 770V759.6H171.637V761.44C172.477 759.88 173.757 759.48 175.037 759.48H175.817V760.94H174.977C173.217 760.94 171.717 761.78 171.697 764.42V770H170.197ZM181.939 770.24C178.999 770.24 177.139 767.9 177.139 764.8C177.139 761.7 178.999 759.36 181.939 759.36C184.899 759.36 186.759 761.7 186.759 764.8V765.32H178.719C178.879 767.4 179.999 768.88 181.939 768.88C183.399 768.88 184.519 768.08 184.999 766.78H186.539C185.899 768.86 184.219 770.24 181.939 770.24ZM178.759 763.96H185.119C184.879 762.06 183.799 760.72 181.939 760.72C180.099 760.72 178.999 762.06 178.759 763.96Z" fill="white"/>
<line x1="934.5" y1="638" x2="934.5" y2="853" stroke="white"/>
<path d="M965.58 660.24C961.04 660.24 958.78 656.78 958.78 652.8C958.78 648.82 961.04 645.36 965.58 645.36C970.1 645.36 972.38 648.82 972.38 652.8C972.38 656.78 970.1 660.24 965.58 660.24ZM965.58 658.78C969.1 658.78 970.74 656.04 970.74 652.8C970.74 649.56 969.1 646.82 965.58 646.82C962.04 646.82 960.42 649.56 960.42 652.8C960.42 656.04 962.04 658.78 965.58 658.78ZM975.877 656.26C975.877 657.86 976.697 658.88 978.357 658.88C979.337 658.88 981.417 658.28 981.417 655.42V649.6H982.917V660H981.477V658.4C980.797 659.44 979.677 660.24 978.077 660.24C975.497 660.24 974.377 658.38 974.377 656.42V649.6H975.877V656.26ZM985.392 660V649.6H986.832V651.44C987.672 649.88 988.952 649.48 990.232 649.48H991.012V650.94H990.172C988.412 650.94 986.912 651.78 986.892 654.42V660H985.392ZM998.338 656.26C998.338 657.86 999.158 658.88 1000.82 658.88C1001.8 658.88 1003.88 658.28 1003.88 655.42V649.6H1005.38V660H1003.94V658.4C1003.26 659.44 1002.14 660.24 1000.54 660.24C997.958 660.24 996.838 658.38 996.838 656.42V649.6H998.338V656.26ZM1007.85 645.6H1009.35V657.46C1009.35 658.28 1009.65 658.68 1010.49 658.68H1011.87V660H1010.23C1008.41 660 1007.85 659.18 1007.85 657.62V645.6ZM1014.69 646.4H1016.19V649.6H1019.05V650.92H1016.19V657.46C1016.19 658.28 1016.49 658.68 1017.33 658.68H1019.05V660H1017.07C1015.25 660 1014.69 659.18 1014.69 657.62V650.92H1012.75V649.6H1014.69V646.4ZM1020.8 660V649.6H1022.32V660H1020.8ZM1020.8 647.62V645.6H1022.3V647.62H1020.8ZM1037.93 653.34C1037.93 651.74 1037.07 650.72 1035.67 650.72C1034.69 650.72 1032.85 651.32 1032.85 654.18V660H1031.35V653.34C1031.35 651.74 1030.49 650.72 1029.09 650.72C1028.11 650.72 1026.27 651.32 1026.27 654.18V660H1024.77V649.6H1026.21V651.16C1026.79 650.14 1027.79 649.36 1029.37 649.36C1030.99 649.36 1032.05 650.26 1032.53 651.48C1033.13 650.3 1034.21 649.36 1035.95 649.36C1038.27 649.36 1039.43 651.22 1039.43 653.18V660H1037.93V653.34ZM1048.46 660V658.54C1047.56 659.8 1046.3 660.24 1045 660.24C1042.68 660.24 1041.3 659.12 1041.3 657.2C1041.3 655.38 1042.68 654.44 1045.06 653.98L1048.4 653.32V652.5C1048.4 651.18 1047.52 650.7 1045.98 650.7C1044.66 650.7 1043.26 651.14 1043.18 652.8H1041.68C1041.74 650.32 1043.78 649.36 1045.98 649.36C1048.62 649.36 1049.86 650.52 1049.86 652.36V660H1048.46ZM1045.06 658.9C1046.72 658.9 1048.4 657.96 1048.4 655.8V654.6L1045.26 655.26C1043.78 655.58 1042.86 655.94 1042.86 657.16C1042.86 658.18 1043.52 658.9 1045.06 658.9ZM1053.07 646.4H1054.57V649.6H1057.43V650.92H1054.57V657.46C1054.57 658.28 1054.87 658.68 1055.71 658.68H1057.43V660H1055.45C1053.63 660 1053.07 659.18 1053.07 657.62V650.92H1051.13V649.6H1053.07V646.4ZM1063.56 660.24C1060.62 660.24 1058.76 657.9 1058.76 654.8C1058.76 651.7 1060.62 649.36 1063.56 649.36C1066.52 649.36 1068.38 651.7 1068.38 654.8V655.32H1060.34C1060.5 657.4 1061.62 658.88 1063.56 658.88C1065.02 658.88 1066.14 658.08 1066.62 656.78H1068.16C1067.52 658.86 1065.84 660.24 1063.56 660.24ZM1060.38 653.96H1066.74C1066.5 652.06 1065.42 650.72 1063.56 650.72C1061.72 650.72 1060.62 652.06 1060.38 653.96ZM1078.92 660.24C1075.82 660.24 1073.96 657.9 1073.96 654.8C1073.96 651.7 1075.82 649.36 1078.92 649.36C1082.04 649.36 1083.9 651.7 1083.9 654.8C1083.9 657.9 1082.04 660.24 1078.92 660.24ZM1078.92 658.88C1081.2 658.88 1082.32 657.14 1082.32 654.8C1082.32 652.46 1081.2 650.72 1078.92 650.72C1076.66 650.72 1075.52 652.46 1075.52 654.8C1075.52 657.14 1076.66 658.88 1078.92 658.88ZM1085.9 660V645.6H1087.4V651.22C1088.14 650.06 1089.32 649.36 1090.92 649.36C1094.02 649.36 1095.72 651.7 1095.72 654.8C1095.72 657.9 1094.02 660.24 1090.92 660.24C1089.28 660.24 1088.08 659.5 1087.34 658.28V660H1085.9ZM1090.76 658.88C1093.02 658.88 1094.14 657.14 1094.14 654.8C1094.14 652.46 1093.02 650.72 1090.76 650.72C1088.48 650.72 1087.36 652.46 1087.36 654.8C1087.36 657.14 1088.48 658.88 1090.76 658.88ZM1099.36 661.62C1099.36 663.18 1098.8 664 1096.98 664H1095.34V662.68H1096.72C1097.56 662.68 1097.86 662.28 1097.86 661.46V649.6H1099.36V661.62ZM1097.84 647.62V645.6H1099.34V647.62H1097.84ZM1106.14 660.24C1103.2 660.24 1101.34 657.9 1101.34 654.8C1101.34 651.7 1103.2 649.36 1106.14 649.36C1109.1 649.36 1110.96 651.7 1110.96 654.8V655.32H1102.92C1103.08 657.4 1104.2 658.88 1106.14 658.88C1107.6 658.88 1108.72 658.08 1109.2 656.78H1110.74C1110.1 658.86 1108.42 660.24 1106.14 660.24ZM1102.96 653.96H1109.32C1109.08 652.06 1108 650.72 1106.14 650.72C1104.3 650.72 1103.2 652.06 1102.96 653.96ZM1117.35 660.24C1114.41 660.24 1112.55 657.9 1112.55 654.8C1112.55 651.7 1114.41 649.36 1117.35 649.36C1119.85 649.36 1121.43 650.88 1121.75 653.08H1120.21C1119.91 651.66 1118.87 650.72 1117.35 650.72C1115.25 650.72 1114.13 652.46 1114.13 654.8C1114.13 657.14 1115.25 658.88 1117.35 658.88C1118.89 658.88 1119.93 657.92 1120.21 656.44H1121.77C1121.45 658.68 1119.71 660.24 1117.35 660.24ZM1124.69 646.4H1126.19V649.6H1129.05V650.92H1126.19V657.46C1126.19 658.28 1126.49 658.68 1127.33 658.68H1129.05V660H1127.07C1125.25 660 1124.69 659.18 1124.69 657.62V650.92H1122.75V649.6H1124.69V646.4ZM1130.8 660V649.6H1132.32V660H1130.8ZM1130.8 647.62V645.6H1132.3V647.62H1130.8ZM1137.93 660L1133.73 649.6H1135.37L1138.71 658.28L1142.03 649.6H1143.67L1139.47 660H1137.93ZM1149.44 660.24C1146.5 660.24 1144.64 657.9 1144.64 654.8C1144.64 651.7 1146.5 649.36 1149.44 649.36C1152.4 649.36 1154.26 651.7 1154.26 654.8V655.32H1146.22C1146.38 657.4 1147.5 658.88 1149.44 658.88C1150.9 658.88 1152.02 658.08 1152.5 656.78H1154.04C1153.4 658.86 1151.72 660.24 1149.44 660.24ZM1146.26 653.96H1152.62C1152.38 652.06 1151.3 650.72 1149.44 650.72C1147.6 650.72 1146.5 652.06 1146.26 653.96ZM1160.25 660V649.6H1161.77V660H1160.25ZM1160.25 647.62V645.6H1161.75V647.62H1160.25ZM1167.9 660.24C1165.38 660.24 1163.62 659.06 1163.5 656.6H1165.02C1165.16 658.26 1166.14 658.92 1167.9 658.92C1169.48 658.92 1170.5 658.34 1170.5 657.24C1170.5 656.26 1170.14 655.82 1167.76 655.44C1164.62 654.92 1163.82 653.92 1163.82 652.28C1163.82 650.5 1165.4 649.36 1167.62 649.36C1170.24 649.36 1171.78 650.62 1171.82 652.8H1170.32C1170.24 651.2 1169.16 650.66 1167.62 650.66C1166.34 650.66 1165.32 651.22 1165.32 652.26C1165.32 653.3 1165.88 653.66 1168.16 654.06C1171.2 654.58 1172.02 655.46 1172.02 657.14C1172.02 659.16 1170.22 660.24 1167.9 660.24ZM1178.85 646.4H1180.35V649.6H1183.21V650.92H1180.35V657.46C1180.35 658.28 1180.65 658.68 1181.49 658.68H1183.21V660H1181.23C1179.41 660 1178.85 659.18 1178.85 657.62V650.92H1176.91V649.6H1178.85V646.4ZM1189.5 660.24C1186.4 660.24 1184.54 657.9 1184.54 654.8C1184.54 651.7 1186.4 649.36 1189.5 649.36C1192.62 649.36 1194.48 651.7 1194.48 654.8C1194.48 657.9 1192.62 660.24 1189.5 660.24ZM1189.5 658.88C1191.78 658.88 1192.9 657.14 1192.9 654.8C1192.9 652.46 1191.78 650.72 1189.5 650.72C1187.24 650.72 1186.1 652.46 1186.1 654.8C1186.1 657.14 1187.24 658.88 1189.5 658.88ZM1205.03 660.24C1201.93 660.24 1200.07 657.9 1200.07 654.8C1200.07 651.7 1201.93 649.36 1205.03 649.36C1208.15 649.36 1210.01 651.7 1210.01 654.8C1210.01 657.9 1208.15 660.24 1205.03 660.24ZM1205.03 658.88C1207.31 658.88 1208.43 657.14 1208.43 654.8C1208.43 652.46 1207.31 650.72 1205.03 650.72C1202.77 650.72 1201.63 652.46 1201.63 654.8C1201.63 657.14 1202.77 658.88 1205.03 658.88ZM1213.05 647.98C1213.05 646.42 1213.61 645.6 1215.43 645.6H1217.41V646.92H1215.69C1214.85 646.92 1214.55 647.32 1214.55 648.14V649.6H1217.41V650.92H1214.55V660H1213.05V650.92H1211.11V649.6H1213.05V647.98ZM1220.24 647.98C1220.24 646.42 1220.8 645.6 1222.62 645.6H1224.6V646.92H1222.88C1222.04 646.92 1221.74 647.32 1221.74 648.14V649.6H1224.6V650.92H1221.74V660H1220.24V650.92H1218.3V649.6H1220.24V647.98ZM1230.73 660.24C1227.79 660.24 1225.93 657.9 1225.93 654.8C1225.93 651.7 1227.79 649.36 1230.73 649.36C1233.69 649.36 1235.55 651.7 1235.55 654.8V655.32H1227.51C1227.67 657.4 1228.79 658.88 1230.73 658.88C1232.19 658.88 1233.31 658.08 1233.79 656.78H1235.33C1234.69 658.86 1233.01 660.24 1230.73 660.24ZM1227.55 653.96H1233.91C1233.67 652.06 1232.59 650.72 1230.73 650.72C1228.89 650.72 1227.79 652.06 1227.55 653.96ZM1237.54 660V649.6H1238.98V651.44C1239.82 649.88 1241.1 649.48 1242.38 649.48H1243.16V650.94H1242.32C1240.56 650.94 1239.06 651.78 1239.04 654.42V660H1237.54ZM1250.03 646.4H1251.53V649.6H1254.39V650.92H1251.53V657.46C1251.53 658.28 1251.83 658.68 1252.67 658.68H1254.39V660H1252.41C1250.59 660 1250.03 659.18 1250.03 657.62V650.92H1248.09V649.6H1250.03V646.4ZM1256.17 660V645.6H1257.67V651.12C1258.37 650.1 1259.45 649.36 1261.01 649.36C1263.59 649.36 1264.71 651.22 1264.71 653.18V660H1263.21V653.34C1263.21 651.74 1262.39 650.72 1260.73 650.72C1259.75 650.72 1257.67 651.32 1257.67 654.18V660H1256.17ZM1271.53 660.24C1268.59 660.24 1266.73 657.9 1266.73 654.8C1266.73 651.7 1268.59 649.36 1271.53 649.36C1274.49 649.36 1276.35 651.7 1276.35 654.8V655.32H1268.31C1268.47 657.4 1269.59 658.88 1271.53 658.88C1272.99 658.88 1274.11 658.08 1274.59 656.78H1276.13C1275.49 658.86 1273.81 660.24 1271.53 660.24ZM1268.35 653.96H1274.71C1274.47 652.06 1273.39 650.72 1271.53 650.72C1269.69 650.72 1268.59 652.06 1268.35 653.96ZM1282.38 660V645.6H1283.88V651.22C1284.62 650.06 1285.8 649.36 1287.4 649.36C1290.5 649.36 1292.2 651.7 1292.2 654.8C1292.2 657.9 1290.5 660.24 1287.4 660.24C1285.76 660.24 1284.56 659.5 1283.82 658.28V660H1282.38ZM1287.24 658.88C1289.5 658.88 1290.62 657.14 1290.62 654.8C1290.62 652.46 1289.5 650.72 1287.24 650.72C1284.96 650.72 1283.84 652.46 1283.84 654.8C1283.84 657.14 1284.96 658.88 1287.24 658.88ZM1295.72 656.26C1295.72 657.86 1296.54 658.88 1298.2 658.88C1299.18 658.88 1301.26 658.28 1301.26 655.42V649.6H1302.76V660H1301.32V658.4C1300.64 659.44 1299.52 660.24 1297.92 660.24C1295.34 660.24 1294.22 658.38 1294.22 656.42V649.6H1295.72V656.26ZM1308.92 660.24C1306.4 660.24 1304.64 659.06 1304.52 656.6H1306.04C1306.18 658.26 1307.16 658.92 1308.92 658.92C1310.5 658.92 1311.52 658.34 1311.52 657.24C1311.52 656.26 1311.16 655.82 1308.78 655.44C1305.64 654.92 1304.84 653.92 1304.84 652.28C1304.84 650.5 1306.42 649.36 1308.64 649.36C1311.26 649.36 1312.8 650.62 1312.84 652.8H1311.34C1311.26 651.2 1310.18 650.66 1308.64 650.66C1307.36 650.66 1306.34 651.22 1306.34 652.26C1306.34 653.3 1306.9 653.66 1309.18 654.06C1312.22 654.58 1313.04 655.46 1313.04 657.14C1313.04 659.16 1311.24 660.24 1308.92 660.24ZM1314.75 660V649.6H1316.27V660H1314.75ZM1314.75 647.62V645.6H1316.25V647.62H1314.75ZM1325.75 653.34C1325.75 651.74 1324.93 650.72 1323.27 650.72C1322.29 650.72 1320.21 651.32 1320.21 654.18V660H1318.71V649.6H1320.15V651.2C1320.83 650.16 1321.95 649.36 1323.55 649.36C1326.13 649.36 1327.25 651.22 1327.25 653.18V660H1325.75V653.34ZM1334.07 660.24C1331.13 660.24 1329.27 657.9 1329.27 654.8C1329.27 651.7 1331.13 649.36 1334.07 649.36C1337.03 649.36 1338.89 651.7 1338.89 654.8V655.32H1330.85C1331.01 657.4 1332.13 658.88 1334.07 658.88C1335.53 658.88 1336.65 658.08 1337.13 656.78H1338.67C1338.03 658.86 1336.35 660.24 1334.07 660.24ZM1330.89 653.96H1337.25C1337.01 652.06 1335.93 650.72 1334.07 650.72C1332.23 650.72 1331.13 652.06 1330.89 653.96ZM1344.56 660.24C1342.04 660.24 1340.28 659.06 1340.16 656.6H1341.68C1341.82 658.26 1342.8 658.92 1344.56 658.92C1346.14 658.92 1347.16 658.34 1347.16 657.24C1347.16 656.26 1346.8 655.82 1344.42 655.44C1341.28 654.92 1340.48 653.92 1340.48 652.28C1340.48 650.5 1342.06 649.36 1344.28 649.36C1346.9 649.36 1348.44 650.62 1348.48 652.8H1346.98C1346.9 651.2 1345.82 650.66 1344.28 650.66C1343 650.66 1341.98 651.22 1341.98 652.26C1341.98 653.3 1342.54 653.66 1344.82 654.06C1347.86 654.58 1348.68 655.46 1348.68 657.14C1348.68 659.16 1346.88 660.24 1344.56 660.24ZM1354.11 660.24C1351.59 660.24 1349.83 659.06 1349.71 656.6H1351.23C1351.37 658.26 1352.35 658.92 1354.11 658.92C1355.69 658.92 1356.71 658.34 1356.71 657.24C1356.71 656.26 1356.35 655.82 1353.97 655.44C1350.83 654.92 1350.03 653.92 1350.03 652.28C1350.03 650.5 1351.61 649.36 1353.83 649.36C1356.45 649.36 1357.99 650.62 1358.03 652.8H1356.53C1356.45 651.2 1355.37 650.66 1353.83 650.66C1352.55 650.66 1351.53 651.22 1351.53 652.26C1351.53 653.3 1352.09 653.66 1354.37 654.06C1357.41 654.58 1358.23 655.46 1358.23 657.14C1358.23 659.16 1356.43 660.24 1354.11 660.24ZM962.92 689.24C960.4 689.24 958.64 688.06 958.52 685.6H960.04C960.18 687.26 961.16 687.92 962.92 687.92C964.5 687.92 965.52 687.34 965.52 686.24C965.52 685.26 965.16 684.82 962.78 684.44C959.64 683.92 958.84 682.92 958.84 681.28C958.84 679.5 960.42 678.36 962.64 678.36C965.26 678.36 966.8 679.62 966.84 681.8H965.34C965.26 680.2 964.18 679.66 962.64 679.66C961.36 679.66 960.34 680.22 960.34 681.26C960.34 682.3 960.9 682.66 963.18 683.06C966.22 683.58 967.04 684.46 967.04 686.14C967.04 688.16 965.24 689.24 962.92 689.24ZM969.831 675.4H971.331V678.6H974.191V679.92H971.331V686.46C971.331 687.28 971.631 687.68 972.471 687.68H974.191V689H972.211C970.391 689 969.831 688.18 969.831 686.62V679.92H967.891V678.6H969.831V675.4ZM975.978 689V678.6H977.418V680.44C978.258 678.88 979.538 678.48 980.818 678.48H981.598V679.94H980.758C978.998 679.94 977.498 680.78 977.478 683.42V689H975.978ZM984.881 685.26C984.881 686.86 985.701 687.88 987.361 687.88C988.341 687.88 990.421 687.28 990.421 684.42V678.6H991.921V689H990.481V687.4C989.801 688.44 988.681 689.24 987.081 689.24C984.501 689.24 983.381 687.38 983.381 685.42V678.6H984.881V685.26ZM998.796 689.24C995.856 689.24 993.996 686.9 993.996 683.8C993.996 680.7 995.856 678.36 998.796 678.36C1001.3 678.36 1002.88 679.88 1003.2 682.08H1001.66C1001.36 680.66 1000.32 679.72 998.796 679.72C996.696 679.72 995.576 681.46 995.576 683.8C995.576 686.14 996.696 687.88 998.796 687.88C1000.34 687.88 1001.38 686.92 1001.66 685.44H1003.22C1002.9 687.68 1001.16 689.24 998.796 689.24ZM1006.14 675.4H1007.64V678.6H1010.5V679.92H1007.64V686.46C1007.64 687.28 1007.94 687.68 1008.78 687.68H1010.5V689H1008.52C1006.7 689 1006.14 688.18 1006.14 686.62V679.92H1004.2V678.6H1006.14V675.4ZM1013.79 685.26C1013.79 686.86 1014.61 687.88 1016.27 687.88C1017.25 687.88 1019.33 687.28 1019.33 684.42V678.6H1020.83V689H1019.39V687.4C1018.71 688.44 1017.59 689.24 1015.99 689.24C1013.41 689.24 1012.29 687.38 1012.29 685.42V678.6H1013.79V685.26ZM1023.3 689V678.6H1024.74V680.44C1025.58 678.88 1026.86 678.48 1028.14 678.48H1028.92V679.94H1028.08C1026.32 679.94 1024.82 680.78 1024.8 683.42V689H1023.3ZM1035.04 689.24C1032.1 689.24 1030.24 686.9 1030.24 683.8C1030.24 680.7 1032.1 678.36 1035.04 678.36C1038 678.36 1039.86 680.7 1039.86 683.8V684.32H1031.82C1031.98 686.4 1033.1 687.88 1035.04 687.88C1036.5 687.88 1037.62 687.08 1038.1 685.78H1039.64C1039 687.86 1037.32 689.24 1035.04 689.24ZM1031.86 682.96H1038.22C1037.98 681.06 1036.9 679.72 1035.04 679.72C1033.2 679.72 1032.1 681.06 1031.86 682.96ZM1050.4 689.24C1047.3 689.24 1045.44 686.9 1045.44 683.8C1045.44 680.7 1047.3 678.36 1050.4 678.36C1053.52 678.36 1055.38 680.7 1055.38 683.8C1055.38 686.9 1053.52 689.24 1050.4 689.24ZM1050.4 687.88C1052.68 687.88 1053.8 686.14 1053.8 683.8C1053.8 681.46 1052.68 679.72 1050.4 679.72C1048.14 679.72 1047 681.46 1047 683.8C1047 686.14 1048.14 687.88 1050.4 687.88ZM1058.42 676.98C1058.42 675.42 1058.98 674.6 1060.8 674.6H1062.78V675.92H1061.06C1060.22 675.92 1059.92 676.32 1059.92 677.14V678.6H1062.78V679.92H1059.92V689H1058.42V679.92H1056.48V678.6H1058.42V676.98ZM1069.66 675.4H1071.16V678.6H1074.02V679.92H1071.16V686.46C1071.16 687.28 1071.46 687.68 1072.3 687.68H1074.02V689H1072.04C1070.22 689 1069.66 688.18 1069.66 686.62V679.92H1067.72V678.6H1069.66V675.4ZM1075.8 689V674.6H1077.3V680.12C1078 679.1 1079.08 678.36 1080.64 678.36C1083.22 678.36 1084.34 680.22 1084.34 682.18V689H1082.84V682.34C1082.84 680.74 1082.02 679.72 1080.36 679.72C1079.38 679.72 1077.3 680.32 1077.3 683.18V689H1075.8ZM1091.16 689.24C1088.22 689.24 1086.36 686.9 1086.36 683.8C1086.36 680.7 1088.22 678.36 1091.16 678.36C1094.12 678.36 1095.98 680.7 1095.98 683.8V684.32H1087.94C1088.1 686.4 1089.22 687.88 1091.16 687.88C1092.62 687.88 1093.74 687.08 1094.22 685.78H1095.76C1095.12 687.86 1093.44 689.24 1091.16 689.24ZM1087.98 682.96H1094.34C1094.1 681.06 1093.02 679.72 1091.16 679.72C1089.32 679.72 1088.22 681.06 1087.98 682.96ZM1103.05 676.98C1103.05 675.42 1103.61 674.6 1105.43 674.6H1107.41V675.92H1105.69C1104.85 675.92 1104.55 676.32 1104.55 677.14V678.6H1107.41V679.92H1104.55V689H1103.05V679.92H1101.11V678.6H1103.05V676.98ZM1110.7 685.26C1110.7 686.86 1111.52 687.88 1113.18 687.88C1114.16 687.88 1116.24 687.28 1116.24 684.42V678.6H1117.74V689H1116.3V687.4C1115.62 688.44 1114.5 689.24 1112.9 689.24C1110.32 689.24 1109.2 687.38 1109.2 685.42V678.6H1110.7V685.26ZM1121.26 675.4H1122.76V678.6H1125.62V679.92H1122.76V686.46C1122.76 687.28 1123.06 687.68 1123.9 687.68H1125.62V689H1123.64C1121.82 689 1121.26 688.18 1121.26 686.62V679.92H1119.32V678.6H1121.26V675.4ZM1128.9 685.26C1128.9 686.86 1129.72 687.88 1131.38 687.88C1132.36 687.88 1134.44 687.28 1134.44 684.42V678.6H1135.94V689H1134.5V687.4C1133.82 688.44 1132.7 689.24 1131.1 689.24C1128.52 689.24 1127.4 687.38 1127.4 685.42V678.6H1128.9V685.26ZM1138.42 689V678.6H1139.86V680.44C1140.7 678.88 1141.98 678.48 1143.26 678.48H1144.04V679.94H1143.2C1141.44 679.94 1139.94 680.78 1139.92 683.42V689H1138.42ZM1150.16 689.24C1147.22 689.24 1145.36 686.9 1145.36 683.8C1145.36 680.7 1147.22 678.36 1150.16 678.36C1153.12 678.36 1154.98 680.7 1154.98 683.8V684.32H1146.94C1147.1 686.4 1148.22 687.88 1150.16 687.88C1151.62 687.88 1152.74 687.08 1153.22 685.78H1154.76C1154.12 687.86 1152.44 689.24 1150.16 689.24ZM1146.98 682.96H1153.34C1153.1 681.06 1152.02 679.72 1150.16 679.72C1148.32 679.72 1147.22 681.06 1146.98 682.96ZM1157.19 686.62H1158.95L1157.41 691.6H1156.13L1157.19 686.62ZM1166.24 675.4H1167.74V678.6H1170.6V679.92H1167.74V686.46C1167.74 687.28 1168.04 687.68 1168.88 687.68H1170.6V689H1168.62C1166.8 689 1166.24 688.18 1166.24 686.62V679.92H1164.3V678.6H1166.24V675.4ZM1176.88 689.24C1173.78 689.24 1171.92 686.9 1171.92 683.8C1171.92 680.7 1173.78 678.36 1176.88 678.36C1180 678.36 1181.86 680.7 1181.86 683.8C1181.86 686.9 1180 689.24 1176.88 689.24ZM1176.88 687.88C1179.16 687.88 1180.28 686.14 1180.28 683.8C1180.28 681.46 1179.16 679.72 1176.88 679.72C1174.62 679.72 1173.48 681.46 1173.48 683.8C1173.48 686.14 1174.62 687.88 1176.88 687.88ZM1193.23 689H1191.79V687.28C1191.05 688.5 1189.85 689.24 1188.21 689.24C1185.11 689.24 1183.41 686.9 1183.41 683.8C1183.41 680.7 1185.11 678.36 1188.21 678.36C1189.81 678.36 1190.99 679.06 1191.73 680.22V674.6H1193.23V689ZM1188.37 687.88C1190.65 687.88 1191.77 686.14 1191.77 683.8C1191.77 681.46 1190.65 679.72 1188.37 679.72C1186.11 679.72 1184.99 681.46 1184.99 683.8C1184.99 686.14 1186.11 687.88 1188.37 687.88ZM1202.24 689V687.54C1201.34 688.8 1200.08 689.24 1198.78 689.24C1196.46 689.24 1195.08 688.12 1195.08 686.2C1195.08 684.38 1196.46 683.44 1198.84 682.98L1202.18 682.32V681.5C1202.18 680.18 1201.3 679.7 1199.76 679.7C1198.44 679.7 1197.04 680.14 1196.96 681.8H1195.46C1195.52 679.32 1197.56 678.36 1199.76 678.36C1202.4 678.36 1203.64 679.52 1203.64 681.36V689H1202.24ZM1198.84 687.9C1200.5 687.9 1202.18 686.96 1202.18 684.8V683.6L1199.04 684.26C1197.56 684.58 1196.64 684.94 1196.64 686.16C1196.64 687.18 1197.3 687.9 1198.84 687.9ZM1205.14 693V691.68H1206.68C1207.66 691.68 1207.9 691.28 1208.24 690.38L1208.76 688.98L1204.78 678.6H1206.42L1209.54 687.18L1212.68 678.6H1214.32L1209.66 690.76C1209.18 692.02 1208.74 693 1207.22 693H1205.14ZM1219.47 683.92V682.54H1228.41V683.92H1219.47ZM1235.63 675.4H1237.13V678.6H1239.99V679.92H1237.13V686.46C1237.13 687.28 1237.43 687.68 1238.27 687.68H1239.99V689H1238.01C1236.19 689 1235.63 688.18 1235.63 686.62V679.92H1233.69V678.6H1235.63V675.4ZM1241.78 689V674.6H1243.28V680.12C1243.98 679.1 1245.06 678.36 1246.62 678.36C1249.2 678.36 1250.32 680.22 1250.32 682.18V689H1248.82V682.34C1248.82 680.74 1248 679.72 1246.34 679.72C1245.36 679.72 1243.28 680.32 1243.28 683.18V689H1241.78ZM1252.79 689V678.6H1254.23V680.44C1255.07 678.88 1256.35 678.48 1257.63 678.48H1258.41V679.94H1257.57C1255.81 679.94 1254.31 680.78 1254.29 683.42V689H1252.79ZM1264.7 689.24C1261.6 689.24 1259.74 686.9 1259.74 683.8C1259.74 680.7 1261.6 678.36 1264.7 678.36C1267.82 678.36 1269.68 680.7 1269.68 683.8C1269.68 686.9 1267.82 689.24 1264.7 689.24ZM1264.7 687.88C1266.98 687.88 1268.1 686.14 1268.1 683.8C1268.1 681.46 1266.98 679.72 1264.7 679.72C1262.44 679.72 1261.3 681.46 1261.3 683.8C1261.3 686.14 1262.44 687.88 1264.7 687.88ZM1273.18 685.26C1273.18 686.86 1274 687.88 1275.66 687.88C1276.64 687.88 1278.72 687.28 1278.72 684.42V678.6H1280.22V689H1278.78V687.4C1278.1 688.44 1276.98 689.24 1275.38 689.24C1272.8 689.24 1271.68 687.38 1271.68 685.42V678.6H1273.18V685.26ZM1287.26 693.24C1284.5 693.24 1283.04 691.96 1282.8 689.86H1284.28C1284.52 691.34 1285.58 691.94 1287.26 691.94C1288.98 691.94 1290.56 691.24 1290.56 688.74V687.38C1289.82 688.54 1288.64 689.24 1287.04 689.24C1283.94 689.24 1282.24 686.9 1282.24 683.8C1282.24 680.7 1283.94 678.36 1287.04 678.36C1288.68 678.36 1289.88 679.1 1290.62 680.32V678.6H1292.06V688.74C1292.06 691.82 1290.04 693.24 1287.26 693.24ZM1287.2 687.88C1289.48 687.88 1290.6 686.14 1290.6 683.8C1290.6 681.46 1289.48 679.72 1287.2 679.72C1284.94 679.72 1283.82 681.46 1283.82 683.8C1283.82 686.14 1284.94 687.88 1287.2 687.88ZM1294.53 689V674.6H1296.03V680.12C1296.73 679.1 1297.81 678.36 1299.37 678.36C1301.95 678.36 1303.07 680.22 1303.07 682.18V689H1301.57V682.34C1301.57 680.74 1300.75 679.72 1299.09 679.72C1298.11 679.72 1296.03 680.32 1296.03 683.18V689H1294.53ZM963.64 718.24C960.7 718.24 958.84 715.9 958.84 712.8C958.84 709.7 960.7 707.36 963.64 707.36C966.14 707.36 967.72 708.88 968.04 711.08H966.5C966.2 709.66 965.16 708.72 963.64 708.72C961.54 708.72 960.42 710.46 960.42 712.8C960.42 715.14 961.54 716.88 963.64 716.88C965.18 716.88 966.22 715.92 966.5 714.44H968.06C967.74 716.68 966 718.24 963.64 718.24ZM971.443 714.26C971.443 715.86 972.263 716.88 973.923 716.88C974.903 716.88 976.983 716.28 976.983 713.42V707.6H978.483V718H977.043V716.4C976.363 717.44 975.243 718.24 973.643 718.24C971.063 718.24 969.943 716.38 969.943 714.42V707.6H971.443V714.26ZM981.999 704.4H983.499V707.6H986.359V708.92H983.499V715.46C983.499 716.28 983.799 716.68 984.639 716.68H986.359V718H984.379C982.559 718 981.999 717.18 981.999 715.62V708.92H980.059V707.6H981.999V704.4ZM989.186 704.4H990.686V707.6H993.546V708.92H990.686V715.46C990.686 716.28 990.986 716.68 991.826 716.68H993.546V718H991.566C989.746 718 989.186 717.18 989.186 715.62V708.92H987.246V707.6H989.186V704.4ZM995.294 718V707.6H996.814V718H995.294ZM995.294 705.62V703.6H996.794V705.62H995.294ZM1006.3 711.34C1006.3 709.74 1005.48 708.72 1003.82 708.72C1002.84 708.72 1000.76 709.32 1000.76 712.18V718H999.26V707.6H1000.7V709.2C1001.38 708.16 1002.5 707.36 1004.1 707.36C1006.68 707.36 1007.8 709.22 1007.8 711.18V718H1006.3V711.34ZM1014.84 722.24C1012.08 722.24 1010.62 720.96 1010.38 718.86H1011.86C1012.1 720.34 1013.16 720.94 1014.84 720.94C1016.56 720.94 1018.14 720.24 1018.14 717.74V716.38C1017.4 717.54 1016.22 718.24 1014.62 718.24C1011.52 718.24 1009.82 715.9 1009.82 712.8C1009.82 709.7 1011.52 707.36 1014.62 707.36C1016.26 707.36 1017.46 708.1 1018.2 709.32V707.6H1019.64V717.74C1019.64 720.82 1017.62 722.24 1014.84 722.24ZM1014.78 716.88C1017.06 716.88 1018.18 715.14 1018.18 712.8C1018.18 710.46 1017.06 708.72 1014.78 708.72C1012.52 708.72 1011.4 710.46 1011.4 712.8C1011.4 715.14 1012.52 716.88 1014.78 716.88ZM1021.77 712.88V711.52H1027.57V712.88H1021.77ZM1034.05 718.24C1031.11 718.24 1029.25 715.9 1029.25 712.8C1029.25 709.7 1031.11 707.36 1034.05 707.36C1037.01 707.36 1038.87 709.7 1038.87 712.8V713.32H1030.83C1030.99 715.4 1032.11 716.88 1034.05 716.88C1035.51 716.88 1036.63 716.08 1037.11 714.78H1038.65C1038.01 716.86 1036.33 718.24 1034.05 718.24ZM1030.87 711.96H1037.23C1036.99 710.06 1035.91 708.72 1034.05 708.72C1032.21 708.72 1031.11 710.06 1030.87 711.96ZM1050.22 718H1048.78V716.28C1048.04 717.5 1046.84 718.24 1045.2 718.24C1042.1 718.24 1040.4 715.9 1040.4 712.8C1040.4 709.7 1042.1 707.36 1045.2 707.36C1046.8 707.36 1047.98 708.06 1048.72 709.22V703.6H1050.22V718ZM1045.36 716.88C1047.64 716.88 1048.76 715.14 1048.76 712.8C1048.76 710.46 1047.64 708.72 1045.36 708.72C1043.1 708.72 1041.98 710.46 1041.98 712.8C1041.98 715.14 1043.1 716.88 1045.36 716.88ZM1057.26 722.24C1054.5 722.24 1053.04 720.96 1052.8 718.86H1054.28C1054.52 720.34 1055.58 720.94 1057.26 720.94C1058.98 720.94 1060.56 720.24 1060.56 717.74V716.38C1059.82 717.54 1058.64 718.24 1057.04 718.24C1053.94 718.24 1052.24 715.9 1052.24 712.8C1052.24 709.7 1053.94 707.36 1057.04 707.36C1058.68 707.36 1059.88 708.1 1060.62 709.32V707.6H1062.06V717.74C1062.06 720.82 1060.04 722.24 1057.26 722.24ZM1057.2 716.88C1059.48 716.88 1060.6 715.14 1060.6 712.8C1060.6 710.46 1059.48 708.72 1057.2 708.72C1054.94 708.72 1053.82 710.46 1053.82 712.8C1053.82 715.14 1054.94 716.88 1057.2 716.88ZM1068.87 718.24C1065.93 718.24 1064.07 715.9 1064.07 712.8C1064.07 709.7 1065.93 707.36 1068.87 707.36C1071.83 707.36 1073.69 709.7 1073.69 712.8V713.32H1065.65C1065.81 715.4 1066.93 716.88 1068.87 716.88C1070.33 716.88 1071.45 716.08 1071.93 714.78H1073.47C1072.83 716.86 1071.15 718.24 1068.87 718.24ZM1065.69 711.96H1072.05C1071.81 710.06 1070.73 708.72 1068.87 708.72C1067.03 708.72 1065.93 710.06 1065.69 711.96ZM1080.77 704.4H1082.27V707.6H1085.13V708.92H1082.27V715.46C1082.27 716.28 1082.57 716.68 1083.41 716.68H1085.13V718H1083.15C1081.33 718 1080.77 717.18 1080.77 715.62V708.92H1078.83V707.6H1080.77V704.4ZM1091.26 718.24C1088.32 718.24 1086.46 715.9 1086.46 712.8C1086.46 709.7 1088.32 707.36 1091.26 707.36C1094.22 707.36 1096.08 709.7 1096.08 712.8V713.32H1088.04C1088.2 715.4 1089.32 716.88 1091.26 716.88C1092.72 716.88 1093.84 716.08 1094.32 714.78H1095.86C1095.22 716.86 1093.54 718.24 1091.26 718.24ZM1088.08 711.96H1094.44C1094.2 710.06 1093.12 708.72 1091.26 708.72C1089.42 708.72 1088.32 710.06 1088.08 711.96ZM1102.47 718.24C1099.53 718.24 1097.67 715.9 1097.67 712.8C1097.67 709.7 1099.53 707.36 1102.47 707.36C1104.97 707.36 1106.55 708.88 1106.87 711.08H1105.33C1105.03 709.66 1103.99 708.72 1102.47 708.72C1100.37 708.72 1099.25 710.46 1099.25 712.8C1099.25 715.14 1100.37 716.88 1102.47 716.88C1104.01 716.88 1105.05 715.92 1105.33 714.44H1106.89C1106.57 716.68 1104.83 718.24 1102.47 718.24ZM1108.77 718V703.6H1110.27V709.12C1110.97 708.1 1112.05 707.36 1113.61 707.36C1116.19 707.36 1117.31 709.22 1117.31 711.18V718H1115.81V711.34C1115.81 709.74 1114.99 708.72 1113.33 708.72C1112.35 708.72 1110.27 709.32 1110.27 712.18V718H1108.77ZM1126.83 711.34C1126.83 709.74 1126.01 708.72 1124.35 708.72C1123.37 708.72 1121.29 709.32 1121.29 712.18V718H1119.79V707.6H1121.23V709.2C1121.91 708.16 1123.03 707.36 1124.63 707.36C1127.21 707.36 1128.33 709.22 1128.33 711.18V718H1126.83V711.34ZM1135.3 718.24C1132.2 718.24 1130.34 715.9 1130.34 712.8C1130.34 709.7 1132.2 707.36 1135.3 707.36C1138.42 707.36 1140.28 709.7 1140.28 712.8C1140.28 715.9 1138.42 718.24 1135.3 718.24ZM1135.3 716.88C1137.58 716.88 1138.7 715.14 1138.7 712.8C1138.7 710.46 1137.58 708.72 1135.3 708.72C1133.04 708.72 1131.9 710.46 1131.9 712.8C1131.9 715.14 1133.04 716.88 1135.3 716.88ZM1142.29 703.6H1143.79V715.46C1143.79 716.28 1144.09 716.68 1144.93 716.68H1146.31V718H1144.67C1142.85 718 1142.29 717.18 1142.29 715.62V703.6ZM1152.59 718.24C1149.49 718.24 1147.63 715.9 1147.63 712.8C1147.63 709.7 1149.49 707.36 1152.59 707.36C1155.71 707.36 1157.57 709.7 1157.57 712.8C1157.57 715.9 1155.71 718.24 1152.59 718.24ZM1152.59 716.88C1154.87 716.88 1155.99 715.14 1155.99 712.8C1155.99 710.46 1154.87 708.72 1152.59 708.72C1150.33 708.72 1149.19 710.46 1149.19 712.8C1149.19 715.14 1150.33 716.88 1152.59 716.88ZM1164.13 722.24C1161.37 722.24 1159.91 720.96 1159.67 718.86H1161.15C1161.39 720.34 1162.45 720.94 1164.13 720.94C1165.85 720.94 1167.43 720.24 1167.43 717.74V716.38C1166.69 717.54 1165.51 718.24 1163.91 718.24C1160.81 718.24 1159.11 715.9 1159.11 712.8C1159.11 709.7 1160.81 707.36 1163.91 707.36C1165.55 707.36 1166.75 708.1 1167.49 709.32V707.6H1168.93V717.74C1168.93 720.82 1166.91 722.24 1164.13 722.24ZM1164.07 716.88C1166.35 716.88 1167.47 715.14 1167.47 712.8C1167.47 710.46 1166.35 708.72 1164.07 708.72C1161.81 708.72 1160.69 710.46 1160.69 712.8C1160.69 715.14 1161.81 716.88 1164.07 716.88ZM1171.37 718V707.6H1172.89V718H1171.37ZM1171.37 705.62V703.6H1172.87V705.62H1171.37ZM1179.73 718.24C1176.79 718.24 1174.93 715.9 1174.93 712.8C1174.93 709.7 1176.79 707.36 1179.73 707.36C1182.23 707.36 1183.81 708.88 1184.13 711.08H1182.59C1182.29 709.66 1181.25 708.72 1179.73 708.72C1177.63 708.72 1176.51 710.46 1176.51 712.8C1176.51 715.14 1177.63 716.88 1179.73 716.88C1181.27 716.88 1182.31 715.92 1182.59 714.44H1184.15C1183.83 716.68 1182.09 718.24 1179.73 718.24ZM1192.58 718V716.54C1191.68 717.8 1190.42 718.24 1189.12 718.24C1186.8 718.24 1185.42 717.12 1185.42 715.2C1185.42 713.38 1186.8 712.44 1189.18 711.98L1192.52 711.32V710.5C1192.52 709.18 1191.64 708.7 1190.1 708.7C1188.78 708.7 1187.38 709.14 1187.3 710.8H1185.8C1185.86 708.32 1187.9 707.36 1190.1 707.36C1192.74 707.36 1193.98 708.52 1193.98 710.36V718H1192.58ZM1189.18 716.9C1190.84 716.9 1192.52 715.96 1192.52 713.8V712.6L1189.38 713.26C1187.9 713.58 1186.98 713.94 1186.98 715.16C1186.98 716.18 1187.64 716.9 1189.18 716.9ZM1196.15 703.6H1197.65V715.46C1197.65 716.28 1197.95 716.68 1198.79 716.68H1200.17V718H1198.53C1196.71 718 1196.15 717.18 1196.15 715.62V703.6ZM1209.68 718.24C1207.16 718.24 1205.4 717.06 1205.28 714.6H1206.8C1206.94 716.26 1207.92 716.92 1209.68 716.92C1211.26 716.92 1212.28 716.34 1212.28 715.24C1212.28 714.26 1211.92 713.82 1209.54 713.44C1206.4 712.92 1205.6 711.92 1205.6 710.28C1205.6 708.5 1207.18 707.36 1209.4 707.36C1212.02 707.36 1213.56 708.62 1213.6 710.8H1212.1C1212.02 709.2 1210.94 708.66 1209.4 708.66C1208.12 708.66 1207.1 709.22 1207.1 710.26C1207.1 711.3 1207.66 711.66 1209.94 712.06C1212.98 712.58 1213.8 713.46 1213.8 715.14C1213.8 717.16 1212 718.24 1209.68 718.24ZM1220.05 718.24C1216.95 718.24 1215.09 715.9 1215.09 712.8C1215.09 709.7 1216.95 707.36 1220.05 707.36C1223.17 707.36 1225.03 709.7 1225.03 712.8C1225.03 715.9 1223.17 718.24 1220.05 718.24ZM1220.05 716.88C1222.33 716.88 1223.45 715.14 1223.45 712.8C1223.45 710.46 1222.33 708.72 1220.05 708.72C1217.79 708.72 1216.65 710.46 1216.65 712.8C1216.65 715.14 1217.79 716.88 1220.05 716.88ZM1227.03 703.6H1228.53V715.46C1228.53 716.28 1228.83 716.68 1229.67 716.68H1231.05V718H1229.41C1227.59 718 1227.03 717.18 1227.03 715.62V703.6ZM1234.33 714.26C1234.33 715.86 1235.15 716.88 1236.81 716.88C1237.79 716.88 1239.87 716.28 1239.87 713.42V707.6H1241.37V718H1239.93V716.4C1239.25 717.44 1238.13 718.24 1236.53 718.24C1233.95 718.24 1232.83 716.38 1232.83 714.42V707.6H1234.33V714.26ZM1244.89 704.4H1246.39V707.6H1249.25V708.92H1246.39V715.46C1246.39 716.28 1246.69 716.68 1247.53 716.68H1249.25V718H1247.27C1245.45 718 1244.89 717.18 1244.89 715.62V708.92H1242.95V707.6H1244.89V704.4ZM1251 718V707.6H1252.52V718H1251ZM1251 705.62V703.6H1252.5V705.62H1251ZM1259.46 718.24C1256.36 718.24 1254.5 715.9 1254.5 712.8C1254.5 709.7 1256.36 707.36 1259.46 707.36C1262.58 707.36 1264.44 709.7 1264.44 712.8C1264.44 715.9 1262.58 718.24 1259.46 718.24ZM1259.46 716.88C1261.74 716.88 1262.86 715.14 1262.86 712.8C1262.86 710.46 1261.74 708.72 1259.46 708.72C1257.2 708.72 1256.06 710.46 1256.06 712.8C1256.06 715.14 1257.2 716.88 1259.46 716.88ZM1273.49 711.34C1273.49 709.74 1272.67 708.72 1271.01 708.72C1270.03 708.72 1267.95 709.32 1267.95 712.18V718H1266.45V707.6H1267.89V709.2C1268.57 708.16 1269.69 707.36 1271.29 707.36C1273.87 707.36 1274.99 709.22 1274.99 711.18V718H1273.49V711.34ZM1281.14 718.24C1278.62 718.24 1276.86 717.06 1276.74 714.6H1278.26C1278.4 716.26 1279.38 716.92 1281.14 716.92C1282.72 716.92 1283.74 716.34 1283.74 715.24C1283.74 714.26 1283.38 713.82 1281 713.44C1277.86 712.92 1277.06 711.92 1277.06 710.28C1277.06 708.5 1278.64 707.36 1280.86 707.36C1283.48 707.36 1285.02 708.62 1285.06 710.8H1283.56C1283.48 709.2 1282.4 708.66 1280.86 708.66C1279.58 708.66 1278.56 709.22 1278.56 710.26C1278.56 711.3 1279.12 711.66 1281.4 712.06C1284.44 712.58 1285.26 713.46 1285.26 715.14C1285.26 717.16 1283.46 718.24 1281.14 718.24ZM1297.6 718V716.54C1296.7 717.8 1295.44 718.24 1294.14 718.24C1291.82 718.24 1290.44 717.12 1290.44 715.2C1290.44 713.38 1291.82 712.44 1294.2 711.98L1297.54 711.32V710.5C1297.54 709.18 1296.66 708.7 1295.12 708.7C1293.8 708.7 1292.4 709.14 1292.32 710.8H1290.82C1290.88 708.32 1292.92 707.36 1295.12 707.36C1297.76 707.36 1299 708.52 1299 710.36V718H1297.6ZM1294.2 716.9C1295.86 716.9 1297.54 715.96 1297.54 713.8V712.6L1294.4 713.26C1292.92 713.58 1292 713.94 1292 715.16C1292 716.18 1292.66 716.9 1294.2 716.9ZM1308.21 711.34C1308.21 709.74 1307.39 708.72 1305.73 708.72C1304.75 708.72 1302.67 709.32 1302.67 712.18V718H1301.17V707.6H1302.61V709.2C1303.29 708.16 1304.41 707.36 1306.01 707.36C1308.59 707.36 1309.71 709.22 1309.71 711.18V718H1308.21V711.34ZM1321.55 718H1320.11V716.28C1319.37 717.5 1318.17 718.24 1316.53 718.24C1313.43 718.24 1311.73 715.9 1311.73 712.8C1311.73 709.7 1313.43 707.36 1316.53 707.36C1318.13 707.36 1319.31 708.06 1320.05 709.22V703.6H1321.55V718ZM1316.69 716.88C1318.97 716.88 1320.09 715.14 1320.09 712.8C1320.09 710.46 1318.97 708.72 1316.69 708.72C1314.43 708.72 1313.31 710.46 1313.31 712.8C1313.31 715.14 1314.43 716.88 1316.69 716.88ZM962.92 747.24C960.4 747.24 958.64 746.06 958.52 743.6H960.04C960.18 745.26 961.16 745.92 962.92 745.92C964.5 745.92 965.52 745.34 965.52 744.24C965.52 743.26 965.16 742.82 962.78 742.44C959.64 741.92 958.84 740.92 958.84 739.28C958.84 737.5 960.42 736.36 962.64 736.36C965.26 736.36 966.8 737.62 966.84 739.8H965.34C965.26 738.2 964.18 737.66 962.64 737.66C961.36 737.66 960.34 738.22 960.34 739.26C960.34 740.3 960.9 740.66 963.18 741.06C966.22 741.58 967.04 742.46 967.04 744.14C967.04 746.16 965.24 747.24 962.92 747.24ZM969.831 733.4H971.331V736.6H974.191V737.92H971.331V744.46C971.331 745.28 971.631 745.68 972.471 745.68H974.191V747H972.211C970.391 747 969.831 746.18 969.831 744.62V737.92H967.891V736.6H969.831V733.4ZM982.518 747V745.54C981.618 746.8 980.358 747.24 979.058 747.24C976.738 747.24 975.358 746.12 975.358 744.2C975.358 742.38 976.738 741.44 979.118 740.98L982.458 740.32V739.5C982.458 738.18 981.578 737.7 980.038 737.7C978.718 737.7 977.318 738.14 977.238 739.8H975.738C975.798 737.32 977.838 736.36 980.038 736.36C982.678 736.36 983.918 737.52 983.918 739.36V747H982.518ZM979.118 745.9C980.778 745.9 982.458 744.96 982.458 742.8V741.6L979.318 742.26C977.838 742.58 976.918 742.94 976.918 744.16C976.918 745.18 977.578 745.9 979.118 745.9ZM987.135 733.4H988.635V736.6H991.495V737.92H988.635V744.46C988.635 745.28 988.935 745.68 989.775 745.68H991.495V747H989.515C987.695 747 987.135 746.18 987.135 744.62V737.92H985.195V736.6H987.135V733.4ZM997.623 747.24C994.683 747.24 992.823 744.9 992.823 741.8C992.823 738.7 994.683 736.36 997.623 736.36C1000.58 736.36 1002.44 738.7 1002.44 741.8V742.32H994.403C994.563 744.4 995.683 745.88 997.623 745.88C999.083 745.88 1000.2 745.08 1000.68 743.78H1002.22C1001.58 745.86 999.903 747.24 997.623 747.24ZM994.443 740.96H1000.8C1000.56 739.06 999.483 737.72 997.623 737.72C995.783 737.72 994.683 739.06 994.443 740.96ZM1004.1 741.88V740.52H1009.9V741.88H1004.1ZM1016.53 747.24C1013.43 747.24 1011.57 744.9 1011.57 741.8C1011.57 738.7 1013.43 736.36 1016.53 736.36C1019.65 736.36 1021.51 738.7 1021.51 741.8C1021.51 744.9 1019.65 747.24 1016.53 747.24ZM1016.53 745.88C1018.81 745.88 1019.93 744.14 1019.93 741.8C1019.93 739.46 1018.81 737.72 1016.53 737.72C1014.27 737.72 1013.13 739.46 1013.13 741.8C1013.13 744.14 1014.27 745.88 1016.53 745.88ZM1024.56 734.98C1024.56 733.42 1025.12 732.6 1026.94 732.6H1028.92V733.92H1027.2C1026.36 733.92 1026.06 734.32 1026.06 735.14V736.6H1028.92V737.92H1026.06V747H1024.56V737.92H1022.62V736.6H1024.56V734.98ZM1030.36 741.88V740.52H1036.16V741.88H1030.36ZM1039.34 733.4H1040.84V736.6H1043.7V737.92H1040.84V744.46C1040.84 745.28 1041.14 745.68 1041.98 745.68H1043.7V747H1041.72C1039.9 747 1039.34 746.18 1039.34 744.62V737.92H1037.4V736.6H1039.34V733.4ZM1045.49 747V732.6H1046.99V738.12C1047.69 737.1 1048.77 736.36 1050.33 736.36C1052.91 736.36 1054.03 738.22 1054.03 740.18V747H1052.53V740.34C1052.53 738.74 1051.71 737.72 1050.05 737.72C1049.07 737.72 1046.99 738.32 1046.99 741.18V747H1045.49ZM1060.85 747.24C1057.91 747.24 1056.05 744.9 1056.05 741.8C1056.05 738.7 1057.91 736.36 1060.85 736.36C1063.81 736.36 1065.67 738.7 1065.67 741.8V742.32H1057.63C1057.79 744.4 1058.91 745.88 1060.85 745.88C1062.31 745.88 1063.43 745.08 1063.91 743.78H1065.45C1064.81 745.86 1063.13 747.24 1060.85 747.24ZM1057.67 740.96H1064.03C1063.79 739.06 1062.71 737.72 1060.85 737.72C1059.01 737.72 1057.91 739.06 1057.67 740.96ZM1067.32 741.88V740.52H1073.12V741.88H1067.32ZM1081.8 747V745.54C1080.9 746.8 1079.64 747.24 1078.34 747.24C1076.02 747.24 1074.64 746.12 1074.64 744.2C1074.64 742.38 1076.02 741.44 1078.4 740.98L1081.74 740.32V739.5C1081.74 738.18 1080.86 737.7 1079.32 737.7C1078 737.7 1076.6 738.14 1076.52 739.8H1075.02C1075.08 737.32 1077.12 736.36 1079.32 736.36C1081.96 736.36 1083.2 737.52 1083.2 739.36V747H1081.8ZM1078.4 745.9C1080.06 745.9 1081.74 744.96 1081.74 742.8V741.6L1078.6 742.26C1077.12 742.58 1076.2 742.94 1076.2 744.16C1076.2 745.18 1076.86 745.9 1078.4 745.9ZM1085.37 747V736.6H1086.81V738.44C1087.65 736.88 1088.93 736.48 1090.21 736.48H1090.99V737.94H1090.15C1088.39 737.94 1086.89 738.78 1086.87 741.42V747H1085.37ZM1093.82 733.4H1095.32V736.6H1098.18V737.92H1095.32V744.46C1095.32 745.28 1095.62 745.68 1096.46 745.68H1098.18V747H1096.2C1094.38 747 1093.82 746.18 1093.82 744.62V737.92H1091.88V736.6H1093.82V733.4ZM1103.97 747V736.6H1105.49V747H1103.97ZM1103.97 734.62V732.6H1105.47V734.62H1103.97ZM1114.97 740.34C1114.97 738.74 1114.15 737.72 1112.49 737.72C1111.51 737.72 1109.43 738.32 1109.43 741.18V747H1107.93V736.6H1109.37V738.2C1110.05 737.16 1111.17 736.36 1112.77 736.36C1115.35 736.36 1116.47 738.22 1116.47 740.18V747H1114.97V740.34ZM1119.99 733.4H1121.49V736.6H1124.35V737.92H1121.49V744.46C1121.49 745.28 1121.79 745.68 1122.63 745.68H1124.35V747H1122.37C1120.55 747 1119.99 746.18 1119.99 744.62V737.92H1118.05V736.6H1119.99V733.4ZM1130.47 747.24C1127.53 747.24 1125.67 744.9 1125.67 741.8C1125.67 738.7 1127.53 736.36 1130.47 736.36C1133.43 736.36 1135.29 738.7 1135.29 741.8V742.32H1127.25C1127.41 744.4 1128.53 745.88 1130.47 745.88C1131.93 745.88 1133.05 745.08 1133.53 743.78H1135.07C1134.43 745.86 1132.75 747.24 1130.47 747.24ZM1127.29 740.96H1133.65C1133.41 739.06 1132.33 737.72 1130.47 737.72C1128.63 737.72 1127.53 739.06 1127.29 740.96ZM1137.29 732.6H1138.79V744.46C1138.79 745.28 1139.09 745.68 1139.93 745.68H1141.31V747H1139.67C1137.85 747 1137.29 746.18 1137.29 744.62V732.6ZM1143.09 732.6H1144.59V744.46C1144.59 745.28 1144.89 745.68 1145.73 745.68H1147.11V747H1145.47C1143.65 747 1143.09 746.18 1143.09 744.62V732.6ZM1148.85 747V736.6H1150.37V747H1148.85ZM1148.85 734.62V732.6H1150.35V734.62H1148.85ZM1157.37 751.24C1154.61 751.24 1153.15 749.96 1152.91 747.86H1154.39C1154.63 749.34 1155.69 749.94 1157.37 749.94C1159.09 749.94 1160.67 749.24 1160.67 746.74V745.38C1159.93 746.54 1158.75 747.24 1157.15 747.24C1154.05 747.24 1152.35 744.9 1152.35 741.8C1152.35 738.7 1154.05 736.36 1157.15 736.36C1158.79 736.36 1159.99 737.1 1160.73 738.32V736.6H1162.17V746.74C1162.17 749.82 1160.15 751.24 1157.37 751.24ZM1157.31 745.88C1159.59 745.88 1160.71 744.14 1160.71 741.8C1160.71 739.46 1159.59 737.72 1157.31 737.72C1155.05 737.72 1153.93 739.46 1153.93 741.8C1153.93 744.14 1155.05 745.88 1157.31 745.88ZM1168.99 747.24C1166.05 747.24 1164.19 744.9 1164.19 741.8C1164.19 738.7 1166.05 736.36 1168.99 736.36C1171.95 736.36 1173.81 738.7 1173.81 741.8V742.32H1165.77C1165.93 744.4 1167.05 745.88 1168.99 745.88C1170.45 745.88 1171.57 745.08 1172.05 743.78H1173.59C1172.95 745.86 1171.27 747.24 1168.99 747.24ZM1165.81 740.96H1172.17C1171.93 739.06 1170.85 737.72 1168.99 737.72C1167.15 737.72 1166.05 739.06 1165.81 740.96ZM1182.84 740.34C1182.84 738.74 1182.02 737.72 1180.36 737.72C1179.38 737.72 1177.3 738.32 1177.3 741.18V747H1175.8V736.6H1177.24V738.2C1177.92 737.16 1179.04 736.36 1180.64 736.36C1183.22 736.36 1184.34 738.22 1184.34 740.18V747H1182.84V740.34ZM1191.22 747.24C1188.28 747.24 1186.42 744.9 1186.42 741.8C1186.42 738.7 1188.28 736.36 1191.22 736.36C1193.72 736.36 1195.3 737.88 1195.62 740.08H1194.08C1193.78 738.66 1192.74 737.72 1191.22 737.72C1189.12 737.72 1188 739.46 1188 741.8C1188 744.14 1189.12 745.88 1191.22 745.88C1192.76 745.88 1193.8 744.92 1194.08 743.44H1195.64C1195.32 745.68 1193.58 747.24 1191.22 747.24ZM1201.86 747.24C1198.92 747.24 1197.06 744.9 1197.06 741.8C1197.06 738.7 1198.92 736.36 1201.86 736.36C1204.82 736.36 1206.68 738.7 1206.68 741.8V742.32H1198.64C1198.8 744.4 1199.92 745.88 1201.86 745.88C1203.32 745.88 1204.44 745.08 1204.92 743.78H1206.46C1205.82 745.86 1204.14 747.24 1201.86 747.24ZM1198.68 740.96H1205.04C1204.8 739.06 1203.72 737.72 1201.86 737.72C1200.02 737.72 1198.92 739.06 1198.68 740.96Z" fill="white"/>
<path d="M711.514 62.5V48.2812H714.805C715.358 48.2878 715.879 48.3464 716.367 48.457C716.862 48.5612 717.318 48.7109 717.734 48.9062C718.314 49.1732 718.825 49.5247 719.268 49.9609C719.717 50.3906 720.075 50.8887 720.342 51.4551C720.583 51.9368 720.765 52.4642 720.889 53.0371C721.019 53.61 721.087 54.222 721.094 54.873V55.918C721.094 56.543 721.032 57.1354 720.908 57.6953C720.791 58.2552 720.618 58.7695 720.391 59.2383C720.156 59.7266 719.86 60.1693 719.502 60.5664C719.144 60.9635 718.743 61.3021 718.301 61.582C717.832 61.875 717.301 62.0996 716.709 62.2559C716.123 62.4121 715.488 62.4935 714.805 62.5H711.514ZM713.35 49.7656V61.0254H714.805C715.326 61.0189 715.798 60.9538 716.221 60.8301C716.65 60.7064 717.031 60.5306 717.363 60.3027C717.715 60.0684 718.018 59.7819 718.271 59.4434C718.532 59.0983 718.737 58.7142 718.887 58.291C719.017 57.946 719.115 57.5749 719.18 57.1777C719.245 56.7741 719.281 56.3542 719.287 55.918V54.8535C719.281 54.4108 719.242 53.9876 719.17 53.584C719.105 53.1738 719.004 52.793 718.867 52.4414C718.691 51.9857 718.454 51.5755 718.154 51.2109C717.861 50.8398 717.5 50.5404 717.07 50.3125C716.764 50.1432 716.423 50.013 716.045 49.9219C715.667 49.8242 715.254 49.7721 714.805 49.7656H713.35ZM731.533 55.9277H725.596V60.9668H732.52V62.5H723.789V48.2812H732.432V49.8242H725.596V54.3945H731.533V55.9277ZM739.209 62.5L734.717 48.2812H736.65L739.775 58.8965L739.98 59.5898L740.195 58.877L743.34 48.2812H745.264L740.781 62.5H739.209ZM755.557 55.9277H749.619V60.9668H756.543V62.5H747.812V48.2812H756.455V49.8242H749.619V54.3945H755.557V55.9277ZM761.787 60.9668H768.74V62.5H759.98V48.2812H761.787V60.9668ZM781.006 56.2109C780.999 56.7188 780.954 57.2331 780.869 57.7539C780.791 58.2682 780.667 58.7663 780.498 59.248C780.329 59.7298 780.111 60.179 779.844 60.5957C779.583 61.0124 779.271 61.377 778.906 61.6895C778.542 62.002 778.122 62.2493 777.646 62.4316C777.178 62.6074 776.65 62.6953 776.064 62.6953C775.479 62.6953 774.948 62.6074 774.473 62.4316C774.004 62.2493 773.587 62.002 773.223 61.6895C772.858 61.377 772.542 61.0124 772.275 60.5957C772.008 60.1725 771.79 59.7201 771.621 59.2383C771.445 58.7565 771.315 58.2585 771.23 57.7441C771.146 57.2298 771.1 56.7188 771.094 56.2109V54.5898C771.1 54.082 771.143 53.571 771.221 53.0566C771.305 52.5358 771.436 52.0345 771.611 51.5527C771.781 51.071 771.995 50.6217 772.256 50.2051C772.523 49.7819 772.839 49.4108 773.203 49.0918C773.568 48.7793 773.984 48.5352 774.453 48.3594C774.928 48.1771 775.459 48.0859 776.045 48.0859C776.631 48.0859 777.161 48.1771 777.637 48.3594C778.112 48.5352 778.532 48.7793 778.896 49.0918C779.261 49.4043 779.574 49.7721 779.834 50.1953C780.101 50.612 780.322 51.0612 780.498 51.543C780.667 52.0247 780.791 52.526 780.869 53.0469C780.954 53.5677 780.999 54.082 781.006 54.5898V56.2109ZM779.219 54.5703C779.212 54.2318 779.189 53.8802 779.15 53.5156C779.111 53.1445 779.046 52.7767 778.955 52.4121C778.857 52.054 778.73 51.7122 778.574 51.3867C778.418 51.0547 778.223 50.7617 777.988 50.5078C777.754 50.2604 777.477 50.0651 777.158 49.9219C776.839 49.7721 776.468 49.6973 776.045 49.6973C775.628 49.6973 775.26 49.7721 774.941 49.9219C774.622 50.0716 774.346 50.2702 774.111 50.5176C773.877 50.7715 773.682 51.0645 773.525 51.3965C773.369 51.722 773.245 52.0638 773.154 52.4219C773.057 52.7865 772.985 53.1543 772.939 53.5254C772.9 53.89 772.878 54.2383 772.871 54.5703V56.2109C772.878 56.543 772.9 56.8945 772.939 57.2656C772.985 57.6367 773.057 58.0013 773.154 58.3594C773.252 58.724 773.379 59.0723 773.535 59.4043C773.691 59.7363 773.887 60.026 774.121 60.2734C774.355 60.5273 774.632 60.7292 774.951 60.8789C775.27 61.0286 775.641 61.1035 776.064 61.1035C776.488 61.1035 776.859 61.0286 777.178 60.8789C777.503 60.7292 777.783 60.5273 778.018 60.2734C778.245 60.026 778.434 59.7396 778.584 59.4141C778.74 59.082 778.867 58.7337 778.965 58.3691C779.056 58.0111 779.118 57.6465 779.15 57.2754C779.189 56.9043 779.212 56.5495 779.219 56.2109V54.5703ZM785.742 56.7969V62.5H783.936V48.2812H788.545C789.183 48.2943 789.785 48.3952 790.352 48.584C790.924 48.7728 791.426 49.0462 791.855 49.4043C792.285 49.7624 792.624 50.2051 792.871 50.7324C793.125 51.2598 793.252 51.8652 793.252 52.5488C793.252 53.2324 793.125 53.8379 792.871 54.3652C792.624 54.8861 792.285 55.3255 791.855 55.6836C791.426 56.0417 790.924 56.3151 790.352 56.5039C789.785 56.6927 789.183 56.7904 788.545 56.7969H785.742ZM785.742 55.3125H788.545C788.962 55.306 789.346 55.2409 789.697 55.1172C790.049 54.987 790.355 54.8047 790.615 54.5703C790.876 54.3359 791.077 54.0527 791.221 53.7207C791.37 53.3822 791.445 52.998 791.445 52.5684C791.445 52.1387 791.37 51.7513 791.221 51.4062C791.077 51.0612 790.879 50.7682 790.625 50.5273C790.365 50.2865 790.055 50.1009 789.697 49.9707C789.346 49.8405 788.962 49.7721 788.545 49.7656H785.742V55.3125ZM797.764 48.2812L800.078 55.3906L802.578 48.2812H804.824V62.5H803.066V56.8262L803.213 50.8887L800.586 58.5449H799.551L797.139 51.0938L797.285 56.8262V62.5H795.527V48.2812H797.764ZM815.615 55.9277H809.678V60.9668H816.602V62.5H807.871V48.2812H816.514V49.8242H809.678V54.3945H815.615V55.9277ZM828.711 62.5H826.875L821.357 51.875L821.328 62.5H819.502V48.2812H821.338L826.855 58.8867L826.885 48.2812H828.711V62.5ZM841.406 49.8242H837.012V62.5H835.254V49.8242H830.859V48.2812H841.406V49.8242Z" fill="#171717"/>
<path d="M720.908 134.223C720.824 134.88 720.654 135.486 720.4 136.039C720.146 136.586 719.818 137.055 719.414 137.445C719.004 137.842 718.519 138.152 717.959 138.373C717.406 138.588 716.787 138.695 716.104 138.695C715.518 138.695 714.984 138.614 714.502 138.451C714.027 138.282 713.604 138.051 713.232 137.758C712.855 137.465 712.529 137.12 712.256 136.723C711.989 136.326 711.768 135.893 711.592 135.424C711.41 134.955 711.273 134.464 711.182 133.949C711.097 133.435 711.051 132.914 711.045 132.387V130.404C711.051 129.877 711.097 129.356 711.182 128.842C711.273 128.327 711.41 127.836 711.592 127.367C711.768 126.898 711.989 126.465 712.256 126.068C712.529 125.665 712.855 125.316 713.232 125.023C713.604 124.73 714.027 124.503 714.502 124.34C714.977 124.171 715.511 124.086 716.104 124.086C716.813 124.086 717.448 124.197 718.008 124.418C718.568 124.633 719.049 124.939 719.453 125.336C719.857 125.74 720.179 126.221 720.42 126.781C720.667 127.341 720.83 127.96 720.908 128.637H719.102C719.043 128.207 718.942 127.807 718.799 127.436C718.656 127.064 718.464 126.739 718.223 126.459C717.982 126.179 717.686 125.961 717.334 125.805C716.989 125.642 716.579 125.561 716.104 125.561C715.674 125.561 715.293 125.632 714.961 125.775C714.635 125.912 714.355 126.101 714.121 126.342C713.88 126.583 713.678 126.863 713.516 127.182C713.359 127.501 713.232 127.839 713.135 128.197C713.037 128.555 712.965 128.923 712.92 129.301C712.881 129.672 712.861 130.033 712.861 130.385V132.387C712.861 132.738 712.881 133.103 712.92 133.48C712.965 133.852 713.037 134.216 713.135 134.574C713.232 134.939 713.359 135.281 713.516 135.6C713.672 135.919 713.87 136.199 714.111 136.439C714.352 136.687 714.635 136.882 714.961 137.025C715.286 137.162 715.667 137.23 716.104 137.23C716.579 137.23 716.989 137.156 717.334 137.006C717.686 136.856 717.982 136.645 718.223 136.371C718.464 136.104 718.656 135.788 718.799 135.424C718.942 135.053 719.043 134.652 719.102 134.223H720.908ZM725.752 136.967H732.705V138.5H723.945V124.281H725.752V136.967ZM744.971 132.211C744.964 132.719 744.919 133.233 744.834 133.754C744.756 134.268 744.632 134.766 744.463 135.248C744.294 135.73 744.076 136.179 743.809 136.596C743.548 137.012 743.236 137.377 742.871 137.689C742.507 138.002 742.087 138.249 741.611 138.432C741.143 138.607 740.615 138.695 740.029 138.695C739.443 138.695 738.913 138.607 738.438 138.432C737.969 138.249 737.552 138.002 737.188 137.689C736.823 137.377 736.507 137.012 736.24 136.596C735.973 136.173 735.755 135.72 735.586 135.238C735.41 134.757 735.28 134.258 735.195 133.744C735.111 133.23 735.065 132.719 735.059 132.211V130.59C735.065 130.082 735.107 129.571 735.186 129.057C735.27 128.536 735.4 128.035 735.576 127.553C735.745 127.071 735.96 126.622 736.221 126.205C736.488 125.782 736.803 125.411 737.168 125.092C737.533 124.779 737.949 124.535 738.418 124.359C738.893 124.177 739.424 124.086 740.01 124.086C740.596 124.086 741.126 124.177 741.602 124.359C742.077 124.535 742.497 124.779 742.861 125.092C743.226 125.404 743.538 125.772 743.799 126.195C744.066 126.612 744.287 127.061 744.463 127.543C744.632 128.025 744.756 128.526 744.834 129.047C744.919 129.568 744.964 130.082 744.971 130.59V132.211ZM743.184 130.57C743.177 130.232 743.154 129.88 743.115 129.516C743.076 129.145 743.011 128.777 742.92 128.412C742.822 128.054 742.695 127.712 742.539 127.387C742.383 127.055 742.188 126.762 741.953 126.508C741.719 126.26 741.442 126.065 741.123 125.922C740.804 125.772 740.433 125.697 740.01 125.697C739.593 125.697 739.225 125.772 738.906 125.922C738.587 126.072 738.311 126.27 738.076 126.518C737.842 126.771 737.646 127.064 737.49 127.396C737.334 127.722 737.21 128.064 737.119 128.422C737.021 128.786 736.95 129.154 736.904 129.525C736.865 129.89 736.842 130.238 736.836 130.57V132.211C736.842 132.543 736.865 132.895 736.904 133.266C736.95 133.637 737.021 134.001 737.119 134.359C737.217 134.724 737.344 135.072 737.5 135.404C737.656 135.736 737.852 136.026 738.086 136.273C738.32 136.527 738.597 136.729 738.916 136.879C739.235 137.029 739.606 137.104 740.029 137.104C740.452 137.104 740.824 137.029 741.143 136.879C741.468 136.729 741.748 136.527 741.982 136.273C742.21 136.026 742.399 135.74 742.549 135.414C742.705 135.082 742.832 134.734 742.93 134.369C743.021 134.011 743.083 133.646 743.115 133.275C743.154 132.904 743.177 132.549 743.184 132.211V130.57ZM756.66 124.281L756.68 133.91C756.68 134.574 756.562 135.196 756.328 135.775C756.094 136.355 755.771 136.859 755.361 137.289C754.951 137.725 754.463 138.07 753.896 138.324C753.33 138.572 752.708 138.695 752.031 138.695C751.341 138.695 750.713 138.572 750.146 138.324C749.58 138.077 749.095 137.735 748.691 137.299C748.288 136.869 747.972 136.365 747.744 135.785C747.516 135.199 747.399 134.574 747.393 133.91L747.412 124.281H749.131L749.17 133.91C749.176 134.333 749.242 134.74 749.365 135.131C749.495 135.521 749.681 135.867 749.922 136.166C750.156 136.465 750.449 136.706 750.801 136.889C751.159 137.071 751.569 137.162 752.031 137.162C752.493 137.162 752.9 137.074 753.252 136.898C753.604 136.716 753.9 136.472 754.141 136.166C754.375 135.867 754.554 135.521 754.678 135.131C754.801 134.74 754.87 134.333 754.883 133.91L754.912 124.281H756.66ZM759.561 138.5V124.281H762.852C763.405 124.288 763.926 124.346 764.414 124.457C764.909 124.561 765.365 124.711 765.781 124.906C766.361 125.173 766.872 125.525 767.314 125.961C767.764 126.391 768.122 126.889 768.389 127.455C768.63 127.937 768.812 128.464 768.936 129.037C769.066 129.61 769.134 130.222 769.141 130.873V131.918C769.141 132.543 769.079 133.135 768.955 133.695C768.838 134.255 768.665 134.77 768.438 135.238C768.203 135.727 767.907 136.169 767.549 136.566C767.191 136.964 766.79 137.302 766.348 137.582C765.879 137.875 765.348 138.1 764.756 138.256C764.17 138.412 763.535 138.493 762.852 138.5H759.561ZM761.396 125.766V137.025H762.852C763.372 137.019 763.844 136.954 764.268 136.83C764.697 136.706 765.078 136.531 765.41 136.303C765.762 136.068 766.064 135.782 766.318 135.443C766.579 135.098 766.784 134.714 766.934 134.291C767.064 133.946 767.161 133.575 767.227 133.178C767.292 132.774 767.327 132.354 767.334 131.918V130.854C767.327 130.411 767.288 129.988 767.217 129.584C767.152 129.174 767.051 128.793 766.914 128.441C766.738 127.986 766.501 127.576 766.201 127.211C765.908 126.84 765.547 126.54 765.117 126.312C764.811 126.143 764.469 126.013 764.092 125.922C763.714 125.824 763.301 125.772 762.852 125.766H761.396Z" fill="#171717"/>
<path d="M720.908 210.223C720.824 210.88 720.654 211.486 720.4 212.039C720.146 212.586 719.818 213.055 719.414 213.445C719.004 213.842 718.519 214.152 717.959 214.373C717.406 214.588 716.787 214.695 716.104 214.695C715.518 214.695 714.984 214.614 714.502 214.451C714.027 214.282 713.604 214.051 713.232 213.758C712.855 213.465 712.529 213.12 712.256 212.723C711.989 212.326 711.768 211.893 711.592 211.424C711.41 210.955 711.273 210.464 711.182 209.949C711.097 209.435 711.051 208.914 711.045 208.387V206.404C711.051 205.877 711.097 205.356 711.182 204.842C711.273 204.327 711.41 203.836 711.592 203.367C711.768 202.898 711.989 202.465 712.256 202.068C712.529 201.665 712.855 201.316 713.232 201.023C713.604 200.73 714.027 200.503 714.502 200.34C714.977 200.171 715.511 200.086 716.104 200.086C716.813 200.086 717.448 200.197 718.008 200.418C718.568 200.633 719.049 200.939 719.453 201.336C719.857 201.74 720.179 202.221 720.42 202.781C720.667 203.341 720.83 203.96 720.908 204.637H719.102C719.043 204.207 718.942 203.807 718.799 203.436C718.656 203.064 718.464 202.739 718.223 202.459C717.982 202.179 717.686 201.961 717.334 201.805C716.989 201.642 716.579 201.561 716.104 201.561C715.674 201.561 715.293 201.632 714.961 201.775C714.635 201.912 714.355 202.101 714.121 202.342C713.88 202.583 713.678 202.863 713.516 203.182C713.359 203.501 713.232 203.839 713.135 204.197C713.037 204.555 712.965 204.923 712.92 205.301C712.881 205.672 712.861 206.033 712.861 206.385V208.387C712.861 208.738 712.881 209.103 712.92 209.48C712.965 209.852 713.037 210.216 713.135 210.574C713.232 210.939 713.359 211.281 713.516 211.6C713.672 211.919 713.87 212.199 714.111 212.439C714.352 212.687 714.635 212.882 714.961 213.025C715.286 213.162 715.667 213.23 716.104 213.23C716.579 213.23 716.989 213.156 717.334 213.006C717.686 212.856 717.982 212.645 718.223 212.371C718.464 212.104 718.656 211.788 718.799 211.424C718.942 211.053 719.043 210.652 719.102 210.223H720.908ZM732.959 208.211C732.952 208.719 732.907 209.233 732.822 209.754C732.744 210.268 732.62 210.766 732.451 211.248C732.282 211.73 732.064 212.179 731.797 212.596C731.536 213.012 731.224 213.377 730.859 213.689C730.495 214.002 730.075 214.249 729.6 214.432C729.131 214.607 728.604 214.695 728.018 214.695C727.432 214.695 726.901 214.607 726.426 214.432C725.957 214.249 725.54 214.002 725.176 213.689C724.811 213.377 724.495 213.012 724.229 212.596C723.962 212.173 723.743 211.72 723.574 211.238C723.398 210.757 723.268 210.258 723.184 209.744C723.099 209.23 723.053 208.719 723.047 208.211V206.59C723.053 206.082 723.096 205.571 723.174 205.057C723.258 204.536 723.389 204.035 723.564 203.553C723.734 203.071 723.949 202.622 724.209 202.205C724.476 201.782 724.792 201.411 725.156 201.092C725.521 200.779 725.938 200.535 726.406 200.359C726.882 200.177 727.412 200.086 727.998 200.086C728.584 200.086 729.115 200.177 729.59 200.359C730.065 200.535 730.485 200.779 730.85 201.092C731.214 201.404 731.527 201.772 731.787 202.195C732.054 202.612 732.275 203.061 732.451 203.543C732.62 204.025 732.744 204.526 732.822 205.047C732.907 205.568 732.952 206.082 732.959 206.59V208.211ZM731.172 206.57C731.165 206.232 731.143 205.88 731.104 205.516C731.064 205.145 730.999 204.777 730.908 204.412C730.811 204.054 730.684 203.712 730.527 203.387C730.371 203.055 730.176 202.762 729.941 202.508C729.707 202.26 729.43 202.065 729.111 201.922C728.792 201.772 728.421 201.697 727.998 201.697C727.581 201.697 727.214 201.772 726.895 201.922C726.576 202.072 726.299 202.27 726.064 202.518C725.83 202.771 725.635 203.064 725.479 203.396C725.322 203.722 725.199 204.064 725.107 204.422C725.01 204.786 724.938 205.154 724.893 205.525C724.854 205.89 724.831 206.238 724.824 206.57V208.211C724.831 208.543 724.854 208.895 724.893 209.266C724.938 209.637 725.01 210.001 725.107 210.359C725.205 210.724 725.332 211.072 725.488 211.404C725.645 211.736 725.84 212.026 726.074 212.273C726.309 212.527 726.585 212.729 726.904 212.879C727.223 213.029 727.594 213.104 728.018 213.104C728.441 213.104 728.812 213.029 729.131 212.879C729.456 212.729 729.736 212.527 729.971 212.273C730.199 212.026 730.387 211.74 730.537 211.414C730.693 211.082 730.82 210.734 730.918 210.369C731.009 210.011 731.071 209.646 731.104 209.275C731.143 208.904 731.165 208.549 731.172 208.211V206.57ZM744.629 214.5H742.793L737.275 203.875L737.246 214.5H735.42V200.281H737.256L742.773 210.887L742.803 200.281H744.629V214.5ZM755.176 210.906C755.176 210.47 755.075 210.102 754.873 209.803C754.678 209.503 754.424 209.249 754.111 209.041C753.799 208.839 753.454 208.67 753.076 208.533C752.705 208.396 752.347 208.273 752.002 208.162C751.501 207.999 750.99 207.804 750.469 207.576C749.954 207.342 749.486 207.062 749.062 206.736C748.633 206.404 748.281 206.014 748.008 205.564C747.741 205.109 747.607 204.575 747.607 203.963C747.607 203.351 747.741 202.804 748.008 202.322C748.281 201.84 748.636 201.434 749.072 201.102C749.508 200.77 750.003 200.519 750.557 200.35C751.11 200.174 751.667 200.086 752.227 200.086C752.845 200.086 753.441 200.19 754.014 200.398C754.587 200.6 755.094 200.887 755.537 201.258C755.98 201.629 756.335 202.078 756.602 202.605C756.868 203.133 757.008 203.722 757.021 204.373H755.166C755.114 203.963 755.013 203.592 754.863 203.26C754.714 202.921 754.515 202.632 754.268 202.391C754.02 202.15 753.724 201.964 753.379 201.834C753.04 201.697 752.656 201.629 752.227 201.629C751.882 201.629 751.543 201.678 751.211 201.775C750.885 201.873 750.596 202.02 750.342 202.215C750.081 202.41 749.873 202.651 749.717 202.938C749.567 203.224 749.492 203.556 749.492 203.934C749.499 204.344 749.603 204.692 749.805 204.979C750.007 205.258 750.264 205.496 750.576 205.691C750.882 205.887 751.214 206.049 751.572 206.18C751.937 206.31 752.279 206.424 752.598 206.521C753.125 206.684 753.652 206.883 754.18 207.117C754.707 207.345 755.189 207.638 755.625 207.996C756.055 208.328 756.4 208.735 756.66 209.217C756.927 209.699 757.061 210.255 757.061 210.887C757.061 211.525 756.917 212.081 756.631 212.557C756.351 213.032 755.986 213.426 755.537 213.738C755.088 214.057 754.58 214.298 754.014 214.461C753.447 214.617 752.881 214.695 752.314 214.695C751.637 214.695 750.97 214.581 750.312 214.354C749.661 214.126 749.095 213.797 748.613 213.367C748.184 212.996 747.842 212.563 747.588 212.068C747.34 211.567 747.207 211.01 747.188 210.398H749.033C749.092 210.841 749.212 211.235 749.395 211.58C749.577 211.919 749.811 212.205 750.098 212.439C750.384 212.68 750.713 212.863 751.084 212.986C751.462 213.104 751.872 213.162 752.314 213.162C752.666 213.162 753.011 213.12 753.35 213.035C753.695 212.944 754.001 212.804 754.268 212.615C754.535 212.433 754.753 212.202 754.922 211.922C755.091 211.635 755.176 211.297 755.176 210.906ZM768.672 200.281L768.691 209.91C768.691 210.574 768.574 211.196 768.34 211.775C768.105 212.355 767.783 212.859 767.373 213.289C766.963 213.725 766.475 214.07 765.908 214.324C765.342 214.572 764.72 214.695 764.043 214.695C763.353 214.695 762.725 214.572 762.158 214.324C761.592 214.077 761.107 213.735 760.703 213.299C760.299 212.869 759.984 212.365 759.756 211.785C759.528 211.199 759.411 210.574 759.404 209.91L759.424 200.281H761.143L761.182 209.91C761.188 210.333 761.253 210.74 761.377 211.131C761.507 211.521 761.693 211.867 761.934 212.166C762.168 212.465 762.461 212.706 762.812 212.889C763.171 213.071 763.581 213.162 764.043 213.162C764.505 213.162 764.912 213.074 765.264 212.898C765.615 212.716 765.911 212.472 766.152 212.166C766.387 211.867 766.566 211.521 766.689 211.131C766.813 210.74 766.882 210.333 766.895 209.91L766.924 200.281H768.672ZM773.799 212.967H780.752V214.5H771.992V200.281H773.799V212.967ZM793.359 201.824H788.965V214.5H787.207V201.824H782.812V200.281H793.359V201.824ZM795.781 200.281H804.375V201.854H800.967V212.938H804.375V214.5H795.781V212.938H799.111V201.854H795.781V200.281ZM816.699 214.5H814.863L809.346 203.875L809.316 214.5H807.49V200.281H809.326L814.844 210.887L814.873 200.281H816.699V214.5ZM829.004 212.635C828.783 212.895 828.548 213.133 828.301 213.348C828.053 213.556 827.796 213.738 827.529 213.895C827.074 214.168 826.582 214.37 826.055 214.5C825.527 214.637 824.974 214.702 824.395 214.695C823.809 214.689 823.268 214.601 822.773 214.432C822.285 214.256 821.846 214.015 821.455 213.709C821.064 213.41 820.723 213.055 820.43 212.645C820.137 212.234 819.893 211.788 819.697 211.307C819.495 210.831 819.342 210.333 819.238 209.812C819.141 209.285 819.089 208.755 819.082 208.221V206.57C819.089 206.043 819.134 205.519 819.219 204.998C819.31 204.471 819.447 203.966 819.629 203.484C819.811 203.003 820.039 202.557 820.312 202.146C820.586 201.73 820.915 201.368 821.299 201.062C821.676 200.763 822.106 200.525 822.588 200.35C823.07 200.174 823.61 200.086 824.209 200.086C824.873 200.086 825.485 200.19 826.045 200.398C826.605 200.6 827.093 200.89 827.51 201.268C827.926 201.652 828.262 202.114 828.516 202.654C828.77 203.188 828.926 203.787 828.984 204.451H827.197C827.126 204.041 827.015 203.663 826.865 203.318C826.715 202.967 826.52 202.667 826.279 202.42C826.032 202.173 825.739 201.98 825.4 201.844C825.062 201.701 824.668 201.629 824.219 201.629C823.789 201.629 823.408 201.704 823.076 201.854C822.744 201.997 822.454 202.192 822.207 202.439C821.96 202.687 821.755 202.977 821.592 203.309C821.429 203.634 821.296 203.979 821.191 204.344C821.087 204.708 821.012 205.079 820.967 205.457C820.921 205.835 820.898 206.199 820.898 206.551V208.221C820.905 208.579 820.934 208.95 820.986 209.334C821.045 209.712 821.133 210.083 821.25 210.447C821.367 210.812 821.517 211.157 821.699 211.482C821.882 211.808 822.103 212.094 822.363 212.342C822.617 212.589 822.913 212.788 823.252 212.938C823.59 213.081 823.975 213.156 824.404 213.162C824.652 213.169 824.909 213.159 825.176 213.133C825.449 213.107 825.713 213.055 825.967 212.977C826.221 212.898 826.458 212.794 826.68 212.664C826.901 212.527 827.087 212.352 827.236 212.137L827.256 208.943H824.365V207.42H828.975L829.004 212.635Z" fill="#171717"/>
<path d="M4.352 418.5V372.42H19.52C34.752 372.42 42.112 382.66 42.112 395.46C42.112 408.26 34.752 418.5 19.52 418.5H4.352ZM9.984 413.38H19.52C31.168 413.38 36.224 405.572 36.224 395.46C36.224 385.348 31.168 377.54 19.52 377.54H9.984V413.38ZM48.5305 418.5V385.22H53.6505V390.788C56.3385 386.052 60.2425 384.836 64.2745 384.836H66.7705V390.02H64.1465C58.5145 390.02 53.9065 392.388 53.9065 400.708V418.5H48.5305ZM72.4025 418.5V385.22H77.7785V418.5H72.4025ZM72.4025 378.948V372.42H77.7785V378.948H72.4025ZM95.449 418.5L82.137 385.22H87.961L98.201 412.292L108.441 385.22H114.265L100.953 418.5H95.449ZM118.59 418.5V385.22H123.966V418.5H118.59ZM118.59 378.948V372.42H123.966V378.948H118.59ZM154.117 397.124C154.117 392.516 151.685 389.316 146.565 389.316C144.26 389.316 137.157 390.404 137.157 399.876V418.5H131.781V385.22H136.901V390.02C139.141 386.884 142.661 384.452 147.589 384.452C156.037 384.452 159.429 390.724 159.429 396.612V418.5H154.117V397.124ZM181.935 432.068C173.103 432.068 168.303 427.908 167.535 421.124H172.847C173.615 425.732 176.943 427.46 181.935 427.46C186.927 427.46 192.303 425.796 192.303 417.604V413.764C189.935 417.22 186.223 419.268 181.295 419.268C171.311 419.268 165.807 411.844 165.807 401.86C165.807 391.876 171.311 384.452 181.295 384.452C186.415 384.452 190.191 386.692 192.559 390.34V385.22H197.679V417.604C197.679 427.844 190.767 432.068 181.935 432.068ZM181.935 414.404C188.975 414.404 192.431 409.156 192.431 401.86C192.431 394.564 188.975 389.316 181.935 389.316C174.895 389.316 171.439 394.564 171.439 401.86C171.439 409.156 174.895 414.404 181.935 414.404ZM221.359 374.98H226.735V385.22H235.695V389.956H226.735V410.308C226.735 412.74 227.759 413.764 230.191 413.764H235.695V418.5H229.167C223.407 418.5 221.359 416.068 221.359 410.948V389.956H215.215V385.22H221.359V374.98ZM241.468 418.5V372.42H246.844V389.7C249.084 386.692 252.476 384.452 257.276 384.452C265.724 384.452 269.116 390.724 269.116 396.612V418.5H263.804V397.124C263.804 392.516 261.372 389.316 256.252 389.316C253.948 389.316 246.844 390.404 246.844 399.876V418.5H241.468ZM291.047 419.268C281.639 419.268 275.495 411.844 275.495 401.86C275.495 391.876 281.639 384.452 291.047 384.452C300.455 384.452 306.599 391.876 306.599 401.86V403.78H281.191C281.767 410.052 285.159 414.404 291.047 414.404C295.399 414.404 298.791 412.164 300.327 408.388H305.895C303.783 414.98 298.279 419.268 291.047 419.268ZM281.319 398.916H300.775C299.943 393.22 296.615 389.316 291.047 389.316C285.479 389.316 282.151 393.22 281.319 398.916ZM328.734 379.972C328.734 374.852 330.782 372.42 336.542 372.42H343.07V377.156H337.566C335.134 377.156 334.11 378.18 334.11 380.612V385.22H343.07V389.956H334.11V418.5H328.734V389.956H322.59V385.22H328.734V379.972ZM354.155 406.596C354.155 411.204 356.587 414.404 361.707 414.404C364.011 414.404 371.115 413.316 371.115 403.844V385.22H376.491V418.5H371.371V413.7C369.131 416.836 365.611 419.268 360.683 419.268C352.235 419.268 348.843 412.996 348.843 407.108V385.22H354.155V406.596ZM387.734 374.98H393.11V385.22H402.07V389.956H393.11V410.308C393.11 412.74 394.134 413.764 396.566 413.764H402.07V418.5H395.542C389.782 418.5 387.734 416.068 387.734 410.948V389.956H381.59V385.22H387.734V374.98ZM413.155 406.596C413.155 411.204 415.587 414.404 420.707 414.404C423.011 414.404 430.115 413.316 430.115 403.844V385.22H435.491V418.5H430.371V413.7C428.131 416.836 424.611 419.268 419.683 419.268C411.235 419.268 407.843 412.996 407.843 407.108V385.22H413.155V406.596ZM443.406 418.5V385.22H448.526V390.788C451.214 386.052 455.118 384.836 459.15 384.836H461.646V390.02H459.022C453.39 390.02 448.782 392.388 448.782 400.708V418.5H443.406ZM481.422 419.268C472.014 419.268 465.87 411.844 465.87 401.86C465.87 391.876 472.014 384.452 481.422 384.452C490.83 384.452 496.974 391.876 496.974 401.86V403.78H471.566C472.142 410.052 475.534 414.404 481.422 414.404C485.774 414.404 489.166 412.164 490.702 408.388H496.27C494.158 414.98 488.654 419.268 481.422 419.268ZM471.694 398.916H491.15C490.318 393.22 486.99 389.316 481.422 389.316C475.854 389.316 472.526 393.22 471.694 398.916ZM504.239 410.564H510.511L505.199 427.076H500.655L504.239 410.564ZM533.296 374.98H538.672V385.22H547.632V389.956H538.672V410.308C538.672 412.74 539.696 413.764 542.128 413.764H547.632V418.5H541.104C535.344 418.5 533.296 416.068 533.296 410.948V389.956H527.152V385.22H533.296V374.98ZM567.998 419.268C558.014 419.268 551.87 411.844 551.87 401.86C551.87 391.876 558.014 384.452 567.998 384.452C577.982 384.452 584.126 391.876 584.126 401.86C584.126 411.844 577.982 419.268 567.998 419.268ZM567.998 414.404C575.038 414.404 578.494 409.156 578.494 401.86C578.494 394.564 575.038 389.316 567.998 389.316C560.958 389.316 557.502 394.564 557.502 401.86C557.502 409.156 560.958 414.404 567.998 414.404ZM620.867 418.5H615.747V413.38C613.379 417.028 609.603 419.268 604.483 419.268C594.499 419.268 588.995 411.844 588.995 401.86C588.995 391.876 594.499 384.452 604.483 384.452C609.411 384.452 613.123 386.5 615.491 389.956V372.42H620.867V418.5ZM605.123 414.404C612.163 414.404 615.619 409.156 615.619 401.86C615.619 394.564 612.163 389.316 605.123 389.316C598.083 389.316 594.627 394.564 594.627 401.86C594.627 409.156 598.083 414.404 605.123 414.404ZM649.517 418.5V414.34C646.637 418.052 642.797 419.268 638.893 419.268C631.405 419.268 626.861 415.748 626.861 409.476C626.861 403.588 631.405 400.516 638.829 399.108L649.261 397.124V394.564C649.261 390.596 646.573 389.188 641.965 389.188C637.997 389.188 633.645 390.404 633.389 395.46H628.013C628.269 387.396 634.925 384.452 641.965 384.452C650.541 384.452 654.509 388.164 654.509 394.052V418.5H649.517ZM639.149 414.532C644.013 414.532 649.261 411.78 649.261 405.316V401.668L639.597 403.652C635.309 404.548 632.429 405.572 632.429 409.348C632.429 412.42 634.413 414.532 639.149 414.532ZM659.355 431.3V426.564H664.347C667.355 426.564 668.123 425.476 669.147 422.66L670.747 418.436L658.075 385.22H663.899L673.499 411.844L683.099 385.22H688.923L674.203 424.004C672.667 428.1 671.195 431.3 666.331 431.3H659.355Z" fill="white"/>
</g>
<defs>
<clipPath id="clip0_57_23">
<rect width="1314" height="786" fill="white"/>
</clipPath>
</defs>
</svg>
